<svg xmlns="http://www.w3.org/2000/svg" viewBox="0 0 512 512">
  <g>
    <path d="M503.7,364.2c-2.5,2.1-5.7,2.2-8.6,2.8-7.7,1.6-15.3,3.3-23,4.7a9.8,9.8,0,0,0-7.7,6.4c-1.3,3.3-2.7,6.6-4.1,9.8a9.8,9.8,0,0,0,.9,10.4c5,7.4,9.9,14.9,14.8,22.4,2.7,4.2,2.7,4.6-.9,8.2l-21.4,21.4c-3.4,3.3-3.9,3.4-7.8.8-7.5-4.9-15.1-9.7-22.4-14.8-4-2.7-7.8-3.4-12.1-1.1a50.4,50.4,0,0,1-7.6,3.1c-4,1.4-6.2,4-7,8.3-1.7,8.9-3.7,17.8-5.6,26.8-1.1,5.1-1.2,5.2-6.2,5.3-10.2,0-20.5-.2-30.7,0-3.6.1-5.2-1.1-5.8-4.7-1.7-8.9-3.8-17.8-5.5-26.8-.8-4.5-3-7.6-7.5-9a61.3,61.3,0,0,1-8-3.3c-3.8-1.9-7.3-1.3-10.8,1-7.5,5.2-15.2,10.1-22.8,15.1-4.1,2.7-4.5,2.7-7.8-.6-7.4-7.3-14.7-14.8-22.2-22-2.3-2.4-2.7-4.3-.7-7.1,5.1-7.4,9.8-15,14.9-22.4,2.7-4,3.1-7.8.8-12.1a57.4,57.4,0,0,1-3.6-8.4,9.8,9.8,0,0,0-7.9-6.7c-9-1.7-17.9-3.8-26.9-5.5-3.2-.6-4.6-2-4.5-5.4.1-10.8.1-21.5,0-32.2,0-2.9.9-4.4,3.9-4.9,7.9-1.5,15.7-3.5,23.6-4.7,6.2-1,10.3-3.7,11.8-10.1a24.2,24.2,0,0,1,2.7-6.7c2.6-4.8,1.9-9-1.2-13.4-4.6-6.5-8.9-13.3-13.3-20-2.6-4.1-2.6-4.3.8-7.7,7.2-7.3,14.4-14.6,21.7-21.8,3.4-3.3,3.7-3.3,7.8-.7,6.8,4.5,13.7,8.9,20.4,13.5,3.9,2.7,7.5,3,11.7.8a70.5,70.5,0,0,1,10.2-4.2,10.6,10.6,0,0,0,7.4-8.6c1.5-8.3,3.5-16.6,5.1-24.9.6-3.2,2.1-4.2,5.2-4.1H386c3.2-.1,4.5,1.3,5.1,4.3,1.5,8,3.4,16,4.8,24,.9,4.8,3.2,7.8,7.8,9.3a58.8,58.8,0,0,1,9.3,3.9c4.6,2.6,8.7,2.2,13-.8,6.5-4.7,13.3-8.9,20-13.3,3.9-2.5,4.2-2.5,7.4.6l22.1,22.1c3.1,3.2,3.1,3.7.7,7.4-4.7,7.1-9.3,14.3-14,21.3-2.5,3.6-3,7.2-1,11.2a91.5,91.5,0,0,1,4,10.3,9.7,9.7,0,0,0,7.9,6.8c8.7,1.7,17.3,3.6,25.9,5.4a7.5,7.5,0,0,1,4.7,2.1Zm-63.2-19c.4-39-31.2-70.9-70.5-71.2s-70.7,31.4-71.1,69.8,31.3,71.8,70.4,71.9A70.7,70.7,0,0,0,440.5,345.2Z"/>
    <path d="M173.8,487.3c-2.5-1.1-5.1-.7-7.6-.8C131.7,485,98,479.8,65.8,467.1c-13.7-5.3-26.6-12-37.8-21.6A55.5,55.5,0,0,1,15.6,431a29.8,29.8,0,0,1-4.4-15.1V350.1a2.8,2.8,0,0,1,.7-2.5c2.7,2.4,5.4,4.8,8.2,7.1,16.6,13.1,35.6,21.4,55.6,27.6,40.8,12.8,82.7,16.7,125.3,15.1a366.8,366.8,0,0,0,59-7,2.7,2.7,0,0,1,2.3.3c1,1.6-.3,2.7-1.1,3.8L249.1,413c-6.1,9.4-5.2,18.4,2.8,26.4s14.2,13.9,21,21.2,12.2,10.2,21.8,8.2c-2.2,2.3-4.4,2.4-6.3,3-27.5,8.8-55.7,13.1-84.5,14.6-3.6.2-7.3-.3-10.9.9Z"/>
    <path d="M182.4,170c-31.6-.1-64.2-3.5-96-12.7C66.8,151.6,48,144,31.6,131.5a63.2,63.2,0,0,1-14.9-15.6c-7.2-11.2-7.3-22.5,0-33.7S33.5,64.2,44.3,58C64,46.7,85.5,40,107.7,35.4c33.8-7.1,68-8.8,102.3-6.6s67.4,8,98.8,21.9c11.1,4.8,21.6,10.7,30.7,18.6s13.9,14.1,16.2,24.4c1.6,7.1-.1,13.6-3.5,19.8-4.6,8.5-11.6,14.8-19.4,20.3-17.8,12.6-37.8,20-58.7,25.4C244.5,167,214.3,169.9,182.4,170Z"/>
    <path d="M245.9,270.5c-7.6,1.7-15.1,2.4-22.6,3.2a392.1,392.1,0,0,1-79.6,0c-32.6-3.4-64.3-10-93.7-25-10.3-5.2-19.9-11.6-27.9-20.2s-11.2-16.7-11-27.7c.4-21.4.1-42.7.1-63.9.7-.3,1.1-.3,1.5,0,15.8,15,34.8,24.4,55,31.5,24.6,8.7,50,13.5,76,16.1a406.5,406.5,0,0,0,71.5.7c36.1-2.8,71.4-9.5,104.5-24.9,12.6-5.9,24.3-13,34.4-22.7.4-.4,1-.7,1.9-1.4V194c-1.4,1.2-3.2.6-4.9.7-8.7.4-15.7,5.7-17.8,14.2s-3.1,14.4-4.7,21.6c-1,5.1-6,7.4-10.3,4.6s-11.2-7.5-16.9-11.1c-9.3-5.9-18.2-5-26.1,2.8s-14.1,14.5-21.5,21.4S243.5,261.1,245.9,270.5Z"/>
    <path d="M255.2,285.9l6.9,10.6c-.7,4.6-2.7,6.9-7.4,7.5s-12.3,2.4-18.4,3.6c-10.6,2.2-16.6,9.3-16.7,20.3s.1,20.2-.1,30.2c-.2,7.7.9,14.8,7.6,20.2-4.4,1.8-8.6,1.5-12.7,1.8-43.9,3.1-87.4.4-129.9-12.1-17.7-5.2-34.7-12.2-49.9-23a73.8,73.8,0,0,1-12.3-10.7c-7.4-7.9-11.4-17-11.2-28.2.4-20.1.1-40.3.1-60.5v-3.4c1.8-.2,2.4,1.2,3.3,2,15.2,13.9,33.2,22.7,52.3,29.5,25.4,9.1,51.6,14,78.3,16.5a408.2,408.2,0,0,0,79.7-.2c8.3-.8,16.5-2.2,24.7-3.3Z"/>
    <path d="M327.7,453.6c-4.6,4.1-18.3,10.9-28.8,13.8l11.4-7.5c4-2.6,7.9-5.4,12-7.8C324.4,450.7,326.1,452.1,327.7,453.6Z"/>
    <path d="M424.1,345.3c-.5,30.5-25.1,54.5-55.3,53.9s-54.1-25.4-53.5-55.3,25.7-54.2,55.4-53.6S424.6,315.7,424.1,345.3Z"/>
  </g>
</svg>
