<svg xmlns="http://www.w3.org/2000/svg" version="1.1" width="512" height="512" x="0" y="0" viewBox="0 0 128 128"
     style="enable-background:new 0 0 512 512" xml:space="preserve">
    <g>
        <path d="m54.76 104.79c-30.2 0-54.76-18.3-54.76-40.79s24.56-40.79 54.76-40.79c23.72 0 44.63 11.25 52 28a2 2 0 1 1 -3.66 1.62c-6.74-15.33-26.18-25.62-48.34-25.62-27.99 0-50.76 16.5-50.76 36.79s22.77 36.79 50.76 36.79c16.16 0 31-5.41 40.7-14.84a2 2 0 0 1 2.79 2.87c-10.45 10.18-26.25 15.97-43.49 15.97z"/>
        <path d="m126 86.16a2 2 0 0 1 -1.7-.94c-6.72-10.79-17.92-28.45-19.37-29.94l-.45-.45c-1.71-1.73-3.33-3.36-5.07-3.36-2.66 0-10.39.68-10.47.69a2 2 0 0 1 -.35-4c.33 0 8-.7 10.82-.7 3.41 0 5.8 2.41 7.91 4.54l.44.44c2.13 2.14 17 25.91 19.94 30.65a2 2 0 0 1 -.64 2.76 2.05 2.05 0 0 1 -1.06.31z"/>
        <path d="m109.81 94.25h-.15a17.26 17.26 0 0 1 -6.66-2.12 19.14 19.14 0 0 1 -6.69-6.9 22.5 22.5 0 0 1 -1.86-4.23c-.62-1.69-1.31-3.59-2.15-4.34s-4-3.29-7.39-6l-5.13-4.15c-5.07-4.11-7.57-6.21-8.38-7-3-3-3-6.75 0-9.76 1.26-1.26 4.09-3 8.86-.34l21.27 11.8-1.94 3.49-21.27-11.86c-2.85-1.58-3.79-.64-4.09-.33-1.82 1.82-1 3.15 0 4.11s6.33 5.32 8.08 6.74 3.45 2.8 5.12 4.14c3.72 3 6.67 5.39 7.52 6.15 1.61 1.42 2.44 3.73 3.26 6a19.5 19.5 0 0 0 1.5 3.48 15.41 15.41 0 0 0 5.29 5.55 13.17 13.17 0 0 0 5 1.58 2 2 0 0 1 -.16 4z"/>
        <path d="m90.45 80.62a6.53 6.53 0 0 1 -3.86-.91c-.34-.28-1.49-1.08-2.7-1.93a73 73 0 0 1 -6.89-5.15c-2.07-2.07-2.43-4.8-.92-7 1.9-2.72 4.41-2.94 5.59-2.64l-1 3.88h.12c-.07 0-.71 0-1.46 1-.14.2-.56.81.47 1.84.78.78 4.3 3.24 6.4 4.71 1.45 1 2.34 1.63 2.8 2a17.09 17.09 0 0 0 5.21-.26 2 2 0 0 1 2.51 1.27 2 2 0 0 1 -1.31 2.57 24.23 24.23 0 0 1 -4.96.62z"/>
        <path d="m91.31 87.55c-2.5 0-10.49-4.43-11.28-5a5.22 5.22 0 0 1 -1.88-6.55 5.45 5.45 0 0 1 4.85-3.32 2 2 0 1 1 0 4 1.44 1.44 0 0 0 -1.18.89 1.25 1.25 0 0 0 .44 1.69c1.4.94 7.81 4.14 9.12 4.29a24.84 24.84 0 0 0 5.27-2.07 2 2 0 0 1 1.77 3.59c-1.51.75-5.22 2.48-7.11 2.48z"/>
        <path d="m81.21 67.26a2.07 2.07 0 0 1 -.35 0l-14.79-2.61a4.77 4.77 0 0 1 -3.89-5.52l2.82-16.4a4.78 4.78 0 0 1 5.52-3.89l16.48 2.85a4.79 4.79 0 0 1 3.89 5.52l-1.5 8.62a2 2 0 1 1 -3.94-.69l1.49-8.61a.77.77 0 0 0 -.13-.58.79.79 0 0 0 -.5-.32l-16.4-2.85a.77.77 0 0 0 -.58.13.79.79 0 0 0 -.32.5l-2.89 16.41a.78.78 0 0 0 .63.89l14.8 2.57a2 2 0 0 1 -.34 4z"/>
        <path d="m23.66 72.46a2 2 0 0 1 -1.66-3.15 9.73 9.73 0 0 0 0-11.16 2 2 0 0 1 3.27-2.3 13.69 13.69 0 0 1 0 15.76 2 2 0 0 1 -1.61.85z"/>
        <path d="m31.42 76.44a2 2 0 0 1 -1.7-3 18.4 18.4 0 0 0 0-19.32 2 2 0 1 1 3.4-2.12 22.41 22.41 0 0 1 0 23.54 2 2 0 0 1 -1.7.9z"/>
        <path d="m39.48 80.6a2 2 0 0 1 -1-.28 2 2 0 0 1 -.71-2.74 27.45 27.45 0 0 0 0-27.7 2 2 0 0 1 3.45-2 31.47 31.47 0 0 1 0 31.76 2 2 0 0 1 -1.74.96z"/>
        <path d="m47.88 84.91a2 2 0 0 1 -1-.26 2 2 0 0 1 -.75-2.73 36.89 36.89 0 0 0 0-36.39 2 2 0 0 1 3.48-2 40.9 40.9 0 0 1 0 40.34 2 2 0 0 1 -1.73 1.04z"/>
    </g>
</svg>