<svg xmlns="http://www.w3.org/2000/svg" viewBox="0 0 512 512">
  <path d="M241,17h31c1.3.9,2.9.8,4.3.9A184.2,184.2,0,0,1,303,21.5c53.7,10.8,98.8,36.7,134.9,77.9,30.5,34.9,49.1,75.5,56.3,121.4,1.1,7,1.2,14.2,2.8,21.2v30a10.1,10.1,0,0,0-.9,3.9c-2,27.6-8.4,54.2-20.2,79.2q-55.2,116.4-182.2,139c-7.2,1.3-14.6,1.3-21.7,2.9H242c-1.5-.9-3.2-.8-4.9-.9a156.3,156.3,0,0,1-20.3-2.5c-49.2-8.7-92-30.2-127.7-65.2Q32.4,372.6,19.9,293.7C18.7,286.5,18,279.2,17,272V242a11.6,11.6,0,0,0,.9-4.9,177.5,177.5,0,0,1,3.4-25.2c10.4-52.2,34.9-96.6,74.4-132.5,37.7-34.2,82-54.3,132.6-60.7C232.5,18.2,236.9,18.7,241,17ZM225,320.7c0,21.7-.2,43.3.1,65s22.8,37.1,43.5,29.1C281.1,410,289,398.2,289,384V269.6c0-4.7.1-9.4-.1-14a31.9,31.9,0,0,0-63.8,1.2C224.9,278.1,225,299.4,225,320.7ZM256.8,107A32,32,0,1,0,289,138.9,31.9,31.9,0,0,0,256.8,107Z"/>
</svg>
