<svg xmlns="http://www.w3.org/2000/svg" version="1.1" width="512" height="512" x="0" y="0" viewBox="0 0 409.6 409.6"
     xml:space="preserve">
	<g>
        <path d="M375.465,204.8v170.665H34.135V34.135H204.8V0H34.135C15.365,0,0,15.36,0,34.135V375.47c0,18.765,15.365,34.13,34.135,34.13h341.33c18.77,0,34.135-15.365,34.135-34.135V204.8H375.465z"
              fill="#000000" class=""/>
        <polygon points="409.6,136.53 409.6,136.53 409.6,136.535" fill="#000000"
                 class=""/>
        <path d="M392.535,0h-119.47v34.125h78.249L204.8,180.659l24.136,24.141L375.465,58.291v78.239H409.6l-0.015-119.47C409.6,7.644,401.951,0,392.535,0z"
              fill="#000000"/>
    </g>
</svg>