<svg xmlns="http://www.w3.org/2000/svg" viewBox="0 0 512 512">
  <g>
    <path d="M503.9,197.8v7.7c-2.5,5.4-7,8.8-12.2,11.6s-9.4,5.4-14.1,8.1l-13.2,7.7a192,192,0,0,1,.1,47.3c9.2,5.3,18.1,10.7,27.2,15.7,5.2,2.8,9.7,6.1,12.2,11.6v7.7l-3.1,5.3L434.7,435c-5.8,9.9-13.3,11.9-23.4,6.1s-19.6-11.4-29.7-17.1a213.7,213.7,0,0,1-41.3,23.7c0,12.1.1,24,0,35.9,0,9.8-5.7,15.6-15.5,15.6H190c-9.7,0-15.4-5.9-15.4-15.7s0-20.5-.1-30.8c0-1.7.5-3.5-.6-5.4A217.2,217.2,0,0,1,133.2,424l-29.7,17.1c-10,5.8-17.6,3.8-23.3-6.2-21.5-37.2-42.7-74.5-64.6-111.5-6.7-11.3-6.2-20.5,7.3-27.4,9.4-4.8,18.3-10.5,27.6-15.8a184.9,184.9,0,0,1-.1-47,13.8,13.8,0,0,0-4.2-2.9l-27-15.6c-8.2-4.8-10.5-12.8-5.8-21Q47.2,135.1,81.2,76.3c3.3-5.7,8.3-8.2,14.8-7.5,2.7.2,4.9,1.5,7.1,2.8L133.3,89a219.5,219.5,0,0,1,41.3-23.8v-5c0-10.4-.1-20.8,0-31.3s5.8-15.1,15-15.1H325.3c9.2,0,14.9,5.9,15,15.1s0,20.9,0,31.3c0,1.8-.4,3.6.6,5.3a216.8,216.8,0,0,1,40.7,23.4l4.4-2.4c9.1-5.3,18.2-10.7,27.5-15.8,7.5-4.2,15.4-2,20,5.2.8,1.2,1.4,2.5,2.2,3.7Q469.8,138.7,503.9,197.8ZM194.1,302.9c.6,1.7,1.2,3.2,1.8,4.6,2.2,5.9,4.3,11.8,6.8,17.5a14.1,14.1,0,0,0,15.3,8.3,14.4,14.4,0,0,0,12-13.2c.3-3.1-.7-6-1.8-8.9q-10.3-27.6-20.9-55.3-12-31.7-23.9-63.3c-2-5.4-5.1-9.7-10.5-11.9-9.4-3.8-19.1.9-23.1,11.3-10.4,27.2-20.7,54.5-31.1,81.7-5.1,13.6-10.5,27.2-15.4,40.9a14.3,14.3,0,0,0,26.3,11.1,34.3,34.3,0,0,0,1.9-4.4c2.3-6.1,4.7-12.2,7.1-18.4Zm82.7-24c5,0,9.3.1,13.6,0,6.1,0,12.2.1,18.2-1.2,23-5.1,39.8-26.3,39.2-49.5s-18.4-44.4-42.1-47.8c-15-2.2-30.1-.9-45.1-.7-6,.1-10.6,5-12.1,10.9a24.6,24.6,0,0,0-.6,6.6V316a32.4,32.4,0,0,0,.2,4.4,14.4,14.4,0,0,0,28.2,2.6,21.7,21.7,0,0,0,.5-6.2ZM395.1,257V231.5c0-12.5.1-25-.1-37.5a14.3,14.3,0,0,0-19.8-13.4c-5.8,2.4-9,7.6-9,15V317.2a27.1,27.1,0,0,0,.1,2.9,14.6,14.6,0,0,0,13,13.3c6.7.7,12.8-3.5,15.1-10.1a21.5,21.5,0,0,0,.7-6.7Z"/>
    <path d="M149.7,273.6l16.8-44.1c5.7,15.3,11.1,29.5,16.6,44.1Z"/>
    <path d="M277.1,249.9V208.5c8.8.1,17.5-1.3,26.1.8s16.6,12.2,15.6,21.5a21.1,21.1,0,0,1-19.7,19C292,250.2,284.8,249.9,277.1,249.9Z"/>
  </g>
</svg>
