<svg xmlns="http://www.w3.org/2000/svg" width="512" height="512" viewBox="0 0 48.6 48.6">
  <g fill="current" stroke="current">
    <path d="M24.8979737 0c.1953125.01953125.390625.04882813.59570313.05859375 3.1392835.13681894 6.21994985.89702647 9.0625 2.23632813 1.6141807.75845307 3.14024405 1.69177507 4.55078125 2.78320312l.28320313.234375c.02929687.02929688.0390625.06835938.08789062.13671875l-4.6875 3.45703125c-4.38476562-2.88085937-9.140625-3.89648438-14.26757812-2.8515625-3.984375.81054688-7.34375 2.78320313-10.05859375 5.81054688-5.40483045 6.01055084-6.27517599 14.83664585-2.1484375 21.78710937 4.12109375 6.953125 12.12890625 10.43945313 20 8.68164063 4.32617187-.95703125 7.86132812-3.22265625 10.59570312-6.69921875s3.99414063-7.48046876 3.95507813-11.93359375c1.70898437-1.26953126 3.42773437-2.5390625 5.21484375-3.84765626.05859375.26367188.1171875.47851563.14648437.69335938.96679688 7.17773438-.7421875 13.62304688-5.390625 19.20898438-3.76953125 4.54101562-8.6328125 7.29492187-14.453125 8.33007812-2.436411.42461036-4.92437239.46415412-7.37304687.1171875 0 0-7.60742188-1.03515625-13.21289063-6.25976563C3.83352058 38.2421875 1.40187996 33.70117188.43508308 28.359375.09842262 26.46829982 0 24.5424972.14211433 22.62695312c.37109375-5.390625 2.31445313-10.15625 5.859375-14.24804687 3.203125-3.70117188 7.1875-6.20117188 11.9140625-7.50976563 1.76335675-.49224152 3.58013938-.76771037 5.41015625-.8203125L23.69680183 0h1.20117188z"/>
    <path d="M24.29250496 23.50585938l19.13085937-14.1015625c1.16971435 1.49493108 2.15653281 3.124329 2.93945313 4.85351562l-22.0703125 16.26953125-9.21875-5.79101562v-7.01171875l9.21875 5.78125z"/>
  </g>
</svg>
